<?xml version="1.0" encoding="UTF-8"?><svg id="a" xmlns="http://www.w3.org/2000/svg" viewBox="0 0 400 400"><rect x="45.65" y="104.15" width="309.6" height="193.2" style="fill:none; stroke:#fff; stroke-miterlimit:10; stroke-width:3px;"/><line x1="200.45" y1="104.15" x2="200.45" y2="297.35" style="fill:none; stroke:#fff; stroke-miterlimit:10; stroke-width:3px;"/><circle cx="200.45" cy="200.75" r="43.65" style="fill:none; stroke:#fff; stroke-miterlimit:10; stroke-width:3px;"/><rect x="45.22" y="151.84" width="41.23" height="97.81" style="fill:none; stroke:#fff; stroke-miterlimit:10; stroke-width:3px;"/><rect x="45.22" y="174.48" width="10.51" height="54.16" style="fill:none; stroke:#fff; stroke-miterlimit:10; stroke-width:3px;"/><path d="M86.45,173.56c6.55,7.63,10.51,17.56,10.51,28.41s-3.74,20.22-9.97,27.77" style="fill:none; stroke:#fff; stroke-miterlimit:10; stroke-width:3px;"/><rect x="313.6" y="151.84" width="41.23" height="97.81" transform="translate(668.42 401.5) rotate(180)" style="fill:none; stroke:#fff; stroke-miterlimit:10; stroke-width:3px;"/><rect x="344.32" y="172.86" width="10.51" height="54.16" transform="translate(699.14 399.88) rotate(180)" style="fill:none; stroke:#fff; stroke-miterlimit:10; stroke-width:3px;"/><path d="M313.6,227.94c-6.55-7.63-10.51-17.56-10.51-28.41s3.74-20.22,9.97-27.77" style="fill:none; stroke:#fff; stroke-miterlimit:10; stroke-width:3px;"/><rect x="181" y="104" width="19" height="193" style="fill:#fff; opacity:.05; stroke-width:0px;"/><rect x="143" y="104" width="19" height="193" style="fill:#fff; opacity:.05; stroke-width:0px;"/><rect x="105" y="104" width="19" height="193" style="fill:#fff; opacity:.05; stroke-width:0px;"/><rect x="67" y="104" width="19" height="193" style="fill:#fff; opacity:.05; stroke-width:0px;"/><rect x="334" y="104" width="19" height="193" style="fill:#fff; opacity:.05; stroke-width:0px;"/><rect x="296" y="104" width="19" height="193" style="fill:#fff; opacity:.05; stroke-width:0px;"/><rect x="258" y="104" width="19" height="193" style="fill:#fff; opacity:.05; stroke-width:0px;"/><rect x="220" y="104" width="19" height="193" style="fill:#fff; opacity:.05; stroke-width:0px;"/></svg>