<?xml version="1.0" encoding="UTF-8"?><svg id="a" xmlns="http://www.w3.org/2000/svg" viewBox="0 0 400 400"><circle cx="200.08" cy="200.08" r="21.83" style="fill:none; stroke:#fff; stroke-miterlimit:10; stroke-width:2px;"/><circle cx="200.08" cy="200.08" r="21.83" style="fill:#fff; opacity:.2; stroke-width:0px;"/><rect x="45.7" y="104.15" width="309.6" height="193.2" style="fill:none; stroke:#fff; stroke-miterlimit:10; stroke-width:3px;"/><line x1="200.5" y1="104.15" x2="200.5" y2="297.35" style="fill:none; stroke:#fff; stroke-miterlimit:10; stroke-width:3px;"/><path d="M110.08,181.93c10.19,0,18.45,8.26,18.45,18.45s-8.26,18.45-18.45,18.45" style="fill:none; stroke:#fff; stroke-miterlimit:10; stroke-width:2px;"/><path d="M45.7,124.33h20.27c42,0,76.05,34.05,76.05,76.05s-34.05,76.05-76.05,76.05h-20.27" style="fill:none; stroke:#fff; stroke-miterlimit:10; stroke-width:3px;"/><rect x="45.73" y="172.62" width="63.9" height="54.9" style="fill:none; stroke:#fff; stroke-miterlimit:10; stroke-width:2px;"/><rect x="46.17" y="173.08" width="63.9" height="54.9" transform="translate(156.25 401.05) rotate(180)" style="fill:#fff; opacity:.2; stroke:#fff; stroke-miterlimit:10; stroke-width:2px;"/><polygon points="47.88 212.07 47.88 189.08 39.88 187.58 39.88 212.58 47.88 212.07" style="fill:#fff; stroke:#fff; stroke-linecap:round; stroke-linejoin:round; stroke-width:2px;"/><circle cx="52.87" cy="201.08" r="5" style="fill:none; stroke:#fff; stroke-linecap:round; stroke-linejoin:round; stroke-width:2px;"/><path d="M291.43,218.83c-10.19,0-18.45-8.26-18.45-18.45s8.26-18.45,18.45-18.45" style="fill:none; stroke:#fff; stroke-miterlimit:10; stroke-width:2px;"/><path d="M355.8,276.43h-20.27c-42,0-76.05-34.05-76.05-76.05s34.05-76.05,76.05-76.05h20.27" style="fill:none; stroke:#fff; stroke-miterlimit:10; stroke-width:3px;"/><rect x="291.87" y="173.24" width="63.9" height="54.9" transform="translate(647.65 401.38) rotate(180)" style="fill:none; stroke:#fff; stroke-miterlimit:10; stroke-width:2px;"/><rect x="291.87" y="173.24" width="63.9" height="54.9" transform="translate(647.65 401.38) rotate(180)" style="fill:#fff; opacity:.2; stroke:#fff; stroke-miterlimit:10; stroke-width:2px;"/><polygon points="353.63 188.69 353.63 211.69 361.62 213.19 361.62 188.19 353.63 188.69" style="fill:#fff; stroke:#fff; stroke-linecap:round; stroke-linejoin:round; stroke-width:2px;"/><circle cx="348.63" cy="199.69" r="5" style="fill:none; stroke:#fff; stroke-linecap:round; stroke-linejoin:round; stroke-width:2px;"/></svg>