<?xml version="1.0" encoding="UTF-8"?><svg id="a" xmlns="http://www.w3.org/2000/svg" viewBox="0 0 400 400"><rect x="45.2" y="104.1" width="309.6" height="193.2" rx="39.05" ry="39.05" style="fill:none; stroke:#fff; stroke-miterlimit:10; stroke-width:3px;"/><line x1="200" y1="104.1" x2="200" y2="297.3" style="fill:none; stroke:#fff; stroke-miterlimit:10; stroke-width:3px;"/><line x1="164.43" y1="104.1" x2="164.43" y2="297.3" style="fill:none; stroke:#fff; stroke-miterlimit:10; stroke-width:2px;"/><line x1="80.73" y1="103.2" x2="80.73" y2="296.4" style="fill:none; stroke:#fff; stroke-miterlimit:10; stroke-width:2px;"/><line x1="236.43" y1="104.1" x2="236.43" y2="297.3" style="fill:none; stroke:#fff; stroke-miterlimit:10; stroke-width:2px;"/><circle cx="200" cy="200.03" r="27" style="fill:none; stroke:#fff; stroke-miterlimit:10; stroke-width:2px;"/><circle cx="200" cy="200.03" r="27" style="fill:#fff; opacity:.2; stroke-width:0px;"/><circle cx="274.25" cy="161.33" r="20.7" style="fill:none; stroke:#fff; stroke-miterlimit:10; stroke-width:2px;"/><circle cx="274.25" cy="161.33" r="20.7" style="fill:#fff; opacity:.2; stroke-width:0px;"/><circle cx="274.25" cy="161.33" r="2.7" style="fill:#fff; stroke:#fff; stroke-miterlimit:10;"/><circle cx="274.25" cy="238.73" r="20.7" style="fill:none; stroke:#fff; stroke-miterlimit:10; stroke-width:2px;"/><circle cx="274.25" cy="238.73" r="20.7" style="fill:#fff; opacity:.2; stroke-width:0px;"/><circle cx="274.25" cy="238.73" r="2.7" style="fill:#fff; stroke:#fff; stroke-miterlimit:10;"/><circle cx="125.75" cy="161.33" r="20.7" style="fill:none; stroke:#fff; stroke-miterlimit:10; stroke-width:2px;"/><circle cx="125.75" cy="161.33" r="20.7" style="fill:#fff; opacity:.2; stroke-width:0px;"/><circle cx="125.75" cy="161.33" r="2.7" style="fill:#fff; stroke:#fff; stroke-miterlimit:10;"/><circle cx="125.75" cy="238.73" r="20.7" style="fill:none; stroke:#fff; stroke-miterlimit:10; stroke-width:2px;"/><circle cx="125.75" cy="238.73" r="20.7" style="fill:#fff; opacity:.2; stroke-width:0px;"/><circle cx="125.75" cy="238.73" r="2.7" style="fill:#fff; stroke:#fff; stroke-miterlimit:10;"/><path d="M80.75,182.48h-8.69c-2.66,0-4.81,2.15-4.81,4.81v25.48c0,2.66,2.15,4.81,4.81,4.81h8.69" style="fill:none; stroke:#fff; stroke-miterlimit:10; stroke-width:3px;"/><line x1="319.27" y1="296.4" x2="319.27" y2="103.2" style="fill:none; stroke:#fff; stroke-miterlimit:10; stroke-width:2px;"/><path d="M319.25,217.13h8.69c2.66,0,4.81-2.15,4.81-4.81v-25.48c0-2.66-2.15-4.81-4.81-4.81h-8.69" style="fill:none; stroke:#fff; stroke-miterlimit:10; stroke-width:3px;"/></svg>