<?xml version="1.0" encoding="UTF-8"?><svg id="a" xmlns="http://www.w3.org/2000/svg" viewBox="0 0 400 400"><ellipse cx="200.13" cy="199.88" rx="154.91" ry="108" style="fill:none; stroke:#fff; stroke-miterlimit:10; stroke-width:3px;"/><ellipse cx="200.13" cy="199.88" rx="97.76" ry="68.16" style="fill:none; stroke:#fff; stroke-miterlimit:10;"/><path d="M200.12,91.88c-85.55,0-154.91,48.35-154.91,108s69.35,108,154.91,108,154.92-48.36,154.92-108-69.35-108-154.92-108ZM200.12,268.04c-53.99,0-97.76-30.52-97.76-68.16s43.77-68.17,97.76-68.17,97.77,30.52,97.77,68.17-43.77,68.16-97.77,68.16Z" style="fill:#fff; opacity:.3; stroke:#fff; stroke-miterlimit:10; stroke-width:3px;"/><path d="M297.89,199.88c0,37.64-43.77,68.16-97.77,68.16s-97.76-30.52-97.76-68.16,43.77-68.17,97.76-68.17,97.77,30.52,97.77,68.17Z" style="fill:none; stroke:#fff; stroke-miterlimit:10; stroke-width:3px;"/><path d="M297.89,199.88c0,37.64-43.77,68.16-97.77,68.16s-97.76-30.52-97.76-68.16,43.77-68.17,97.76-68.17,97.77,30.52,97.77,68.17Z" style="fill:none; stroke:#fff; stroke-miterlimit:10;"/><rect x="157.83" y="188.18" width="84.6" height="23.4" rx="3.17" ry="3.17" style="fill:#fff; opacity:.5; stroke:#fff; stroke-linecap:round; stroke-linejoin:round;"/></svg>