<?xml version="1.0" encoding="UTF-8"?><svg id="a" xmlns="http://www.w3.org/2000/svg" viewBox="0 0 400 400"><path d="M180.63,287.2l-119.05-119.05-.65-.2c26.98-49.66,79.59-83.37,140.07-83.37s113.1,33.71,140.07,83.37l-.69.2-119.03,119.03" style="fill:none; stroke:#fff; stroke-miterlimit:10; stroke-width:3px;"/><line x1="63.18" y1="162.55" x2="188.73" y2="288.1" style="fill:none; stroke:#fff; stroke-miterlimit:10; stroke-width:2px;"/><line x1="337.9" y1="163.43" x2="214.15" y2="287.18" style="fill:none; stroke:#fff; stroke-miterlimit:10; stroke-width:2px;"/><rect x="144.75" y="237.58" width="9" height="9" rx="1.04" ry="1.04" transform="translate(-127.46 176.44) rotate(-45)" style="fill:#fff; stroke-width:0px;"/><rect x="248.25" y="237.58" width="9" height="9" rx="1.04" ry="1.04" transform="translate(-97.14 249.62) rotate(-45)" style="fill:#fff; stroke-width:0px;"/><rect x="196.5" y="185.37" width="9" height="9" rx="1.04" ry="1.04" transform="translate(-75.39 197.74) rotate(-45)" style="fill:#fff; stroke-width:0px;"/><rect x="196.5" y="239.38" width="9" height="6.3" rx="1.04" ry="1.04" style="fill:#fff; stroke-width:0px;"/><path d="M201.99,299.24c-.56.51-1.42.51-1.99,0-1.07-.96-2.61-2.41-2.61-2.75v-4.43c0-.52.42-.93.93-.93h5.33c.52,0,.93.42.93.93v4.43c0,.34-1.54,1.79-2.61,2.75Z" style="fill:#fff; stroke-width:0px;"/><circle cx="201" cy="242.53" r="16.2" style="fill:none; stroke:#fff; stroke-miterlimit:10; stroke-width:2px;"/><circle cx="201" cy="242.53" r="16.2" style="fill:#fff; opacity:.2; stroke:#fff; stroke-miterlimit:10; stroke-width:2px;"/><circle cx="201" cy="297.42" r="22.5" style="fill:none; stroke:#fff; stroke-miterlimit:10; stroke-width:3px;"/><circle cx="201" cy="297.42" r="22.5" style="fill:#fff; opacity:.2; stroke-width:0px;"/><rect x="187.95" y="286.62" width="6.3" height="15.3" style="fill:none; stroke:#fff; stroke-linecap:round; stroke-linejoin:round; stroke-width:2px;"/><rect x="207.75" y="286.62" width="6.3" height="15.3" style="fill:none; stroke:#fff; stroke-linecap:round; stroke-linejoin:round; stroke-width:2px;"/><path d="M245.12,256.21l-.55.56c-5.04-2.75-8.46-8.09-8.46-14.24s3.23-11.18,8.03-13.99l-.59-.49-28.14-29.61-.07.35c-2.72,5.14-8.12,9.55-14.33,9.55s-10.73-3.13-13.5-8.1v-.9l-.66.66-28.05,28.05v.5c4.8,2.81,8.01,8.02,8.01,13.98,0,6.4-3.71,11.93-9.09,14.56l-.94-.94-38.47-38.47.28-.35c15.87-29.22,46.83-49.05,82.41-49.05s66.54,19.83,82.41,49.05l.29.29-39.14,39.14" style="fill:none; stroke:#fff; stroke-linecap:round; stroke-linejoin:round; stroke-width:2px;"/><path d="M245.12,256.21l-.55.56c-5.04-2.75-8.46-8.09-8.46-14.24s3.23-11.18,8.03-13.99l-.59-.49-28.14-29.61-.07.35c-2.72,5.14-8.12,9.55-14.33,9.55s-10.73-3.13-13.5-8.1v-.9l-.66.66-28.05,28.05v.5c4.8,2.81,8.01,8.02,8.01,13.98,0,6.4-3.71,11.93-9.09,14.56l-.94-.94-38.47-38.47.28-.35c15.87-29.22,46.83-49.05,82.41-49.05s66.54,19.83,82.41,49.05l.29.29-39.14,39.14" style="fill:#fff; opacity:.3; stroke-width:0px;"/></svg>