<?xml version="1.0" encoding="UTF-8"?><svg id="a" xmlns="http://www.w3.org/2000/svg" viewBox="0 0 400 400"><rect x="45.65" y="104.1" width="309.6" height="193.2" style="fill:none; stroke:#fff; stroke-miterlimit:10; stroke-width:3px;"/><line x1="200.45" y1="104.1" x2="200.45" y2="297.3" style="fill:none; stroke:#fff; stroke-miterlimit:10; stroke-width:3px;"/><line x1="164.45" y1="104.1" x2="164.45" y2="115.88" style="fill:none; stroke:#fff; stroke-linecap:round; stroke-linejoin:round; stroke-width:3px;"/><line x1="164.45" y1="126.6" x2="164.45" y2="138.38" style="fill:none; stroke:#fff; stroke-linecap:round; stroke-linejoin:round; stroke-width:3px;"/><line x1="164.45" y1="149.1" x2="164.45" y2="160.88" style="fill:none; stroke:#fff; stroke-linecap:round; stroke-linejoin:round; stroke-width:3px;"/><line x1="158.56" y1="154.99" x2="170.34" y2="154.99" style="fill:none; stroke:#fff; stroke-linecap:round; stroke-linejoin:round; stroke-width:3px;"/><line x1="158.56" y1="244.99" x2="170.34" y2="244.99" style="fill:none; stroke:#fff; stroke-linecap:round; stroke-linejoin:round; stroke-width:3px;"/><line x1="119.86" y1="154.99" x2="131.64" y2="154.99" style="fill:none; stroke:#fff; stroke-linecap:round; stroke-linejoin:round; stroke-width:3px;"/><line x1="119.86" y1="244.99" x2="131.64" y2="244.99" style="fill:none; stroke:#fff; stroke-linecap:round; stroke-linejoin:round; stroke-width:3px;"/><line x1="65.86" y1="154.99" x2="73.12" y2="154.99" style="fill:none; stroke:#fff; stroke-linecap:round; stroke-linejoin:round; stroke-width:3px;"/><line x1="65.86" y1="244.99" x2="73.12" y2="244.99" style="fill:none; stroke:#fff; stroke-linecap:round; stroke-linejoin:round; stroke-width:3px;"/><line x1="194.56" y1="154.99" x2="206.34" y2="154.99" style="fill:none; stroke:#fff; stroke-linecap:round; stroke-linejoin:round; stroke-width:3px;"/><line x1="158.56" y1="116.29" x2="170.34" y2="116.29" style="fill:none; stroke:#fff; stroke-linecap:round; stroke-linejoin:round; stroke-width:3px;"/><line x1="119.86" y1="116.29" x2="131.64" y2="116.29" style="fill:none; stroke:#fff; stroke-linecap:round; stroke-linejoin:round; stroke-width:3px;"/><line x1="65.86" y1="116.29" x2="73.12" y2="116.29" style="fill:none; stroke:#fff; stroke-linecap:round; stroke-linejoin:round; stroke-width:3px;"/><line x1="194.56" y1="116.29" x2="206.34" y2="116.29" style="fill:none; stroke:#fff; stroke-linecap:round; stroke-linejoin:round; stroke-width:3px;"/><line x1="158.56" y1="283.69" x2="170.34" y2="283.69" style="fill:none; stroke:#fff; stroke-linecap:round; stroke-linejoin:round; stroke-width:3px;"/><line x1="119.86" y1="283.69" x2="131.64" y2="283.69" style="fill:none; stroke:#fff; stroke-linecap:round; stroke-linejoin:round; stroke-width:3px;"/><line x1="65.86" y1="283.69" x2="73.12" y2="283.69" style="fill:none; stroke:#fff; stroke-linecap:round; stroke-linejoin:round; stroke-width:3px;"/><line x1="194.56" y1="283.69" x2="206.34" y2="283.69" style="fill:none; stroke:#fff; stroke-linecap:round; stroke-linejoin:round; stroke-width:3px;"/><line x1="194.56" y1="244.99" x2="206.34" y2="244.99" style="fill:none; stroke:#fff; stroke-linecap:round; stroke-linejoin:round; stroke-width:3px;"/><line x1="164.45" y1="171.6" x2="164.45" y2="183.38" style="fill:none; stroke:#fff; stroke-linecap:round; stroke-linejoin:round; stroke-width:3px;"/><line x1="164.45" y1="194.1" x2="164.45" y2="205.88" style="fill:none; stroke:#fff; stroke-linecap:round; stroke-linejoin:round; stroke-width:3px;"/><line x1="164.45" y1="216.6" x2="164.45" y2="228.38" style="fill:none; stroke:#fff; stroke-linecap:round; stroke-linejoin:round; stroke-width:3px;"/><line x1="164.45" y1="239.1" x2="164.45" y2="250.88" style="fill:none; stroke:#fff; stroke-linecap:round; stroke-linejoin:round; stroke-width:3px;"/><line x1="164.45" y1="261.6" x2="164.45" y2="273.38" style="fill:none; stroke:#fff; stroke-linecap:round; stroke-linejoin:round; stroke-width:3px;"/><line x1="164.45" y1="284.1" x2="164.45" y2="295.88" style="fill:none; stroke:#fff; stroke-linecap:round; stroke-linejoin:round; stroke-width:3px;"/><line x1="125.75" y1="104.1" x2="125.75" y2="297.3" style="fill:none; stroke:#fff; stroke-miterlimit:10; stroke-width:3px;"/><line x1="65.45" y1="104.1" x2="65.45" y2="297.3" style="fill:none; stroke:#fff; stroke-miterlimit:10; stroke-width:3px;"/><circle cx="65.45" cy="185.01" r="2.23" style="fill:#fff; stroke:#fff; stroke-miterlimit:10; stroke-width:.75px;"/><circle cx="65.45" cy="215.04" r="2.23" style="fill:#fff; stroke:#fff; stroke-miterlimit:10; stroke-width:.75px;"/><line x1="65.86" y1="185.01" x2="49.13" y2="183.38" style="fill:none; stroke:#fff; stroke-linecap:round; stroke-linejoin:round; stroke-width:2px;"/><line x1="49.13" y1="216.51" x2="65.86" y2="214.88" style="fill:none; stroke:#fff; stroke-linecap:round; stroke-linejoin:round; stroke-width:2px;"/><line x1="60.28" y1="184.47" x2="60.28" y2="215.69" style="fill:none; stroke:#fff; stroke-miterlimit:10; stroke-width:2px;"/><line x1="235.92" y1="296.4" x2="235.92" y2="284.63" style="fill:none; stroke:#fff; stroke-linecap:round; stroke-linejoin:round; stroke-width:3px;"/><line x1="235.92" y1="273.9" x2="235.92" y2="262.13" style="fill:none; stroke:#fff; stroke-linecap:round; stroke-linejoin:round; stroke-width:3px;"/><line x1="235.92" y1="251.4" x2="235.92" y2="239.63" style="fill:none; stroke:#fff; stroke-linecap:round; stroke-linejoin:round; stroke-width:3px;"/><line x1="241.81" y1="245.51" x2="230.03" y2="245.51" style="fill:none; stroke:#fff; stroke-linecap:round; stroke-linejoin:round; stroke-width:3px;"/><line x1="241.81" y1="155.51" x2="230.03" y2="155.51" style="fill:none; stroke:#fff; stroke-linecap:round; stroke-linejoin:round; stroke-width:3px;"/><line x1="280.51" y1="245.51" x2="268.73" y2="245.51" style="fill:none; stroke:#fff; stroke-linecap:round; stroke-linejoin:round; stroke-width:3px;"/><line x1="280.51" y1="155.51" x2="268.73" y2="155.51" style="fill:none; stroke:#fff; stroke-linecap:round; stroke-linejoin:round; stroke-width:3px;"/><line x1="334.51" y1="245.51" x2="327.25" y2="245.51" style="fill:none; stroke:#fff; stroke-linecap:round; stroke-linejoin:round; stroke-width:3px;"/><line x1="334.51" y1="155.51" x2="327.25" y2="155.51" style="fill:none; stroke:#fff; stroke-linecap:round; stroke-linejoin:round; stroke-width:3px;"/><line x1="241.81" y1="284.21" x2="230.03" y2="284.21" style="fill:none; stroke:#fff; stroke-linecap:round; stroke-linejoin:round; stroke-width:3px;"/><line x1="280.51" y1="284.21" x2="268.73" y2="284.21" style="fill:none; stroke:#fff; stroke-linecap:round; stroke-linejoin:round; stroke-width:3px;"/><line x1="334.51" y1="284.21" x2="327.25" y2="284.21" style="fill:none; stroke:#fff; stroke-linecap:round; stroke-linejoin:round; stroke-width:3px;"/><line x1="241.81" y1="116.81" x2="230.03" y2="116.81" style="fill:none; stroke:#fff; stroke-linecap:round; stroke-linejoin:round; stroke-width:3px;"/><line x1="280.51" y1="116.81" x2="268.73" y2="116.81" style="fill:none; stroke:#fff; stroke-linecap:round; stroke-linejoin:round; stroke-width:3px;"/><line x1="334.51" y1="116.81" x2="327.25" y2="116.81" style="fill:none; stroke:#fff; stroke-linecap:round; stroke-linejoin:round; stroke-width:3px;"/><line x1="235.92" y1="228.9" x2="235.92" y2="217.13" style="fill:none; stroke:#fff; stroke-linecap:round; stroke-linejoin:round; stroke-width:3px;"/><line x1="235.92" y1="206.4" x2="235.92" y2="194.63" style="fill:none; stroke:#fff; stroke-linecap:round; stroke-linejoin:round; stroke-width:3px;"/><line x1="235.92" y1="183.9" x2="235.92" y2="172.13" style="fill:none; stroke:#fff; stroke-linecap:round; stroke-linejoin:round; stroke-width:3px;"/><line x1="235.92" y1="161.4" x2="235.92" y2="149.63" style="fill:none; stroke:#fff; stroke-linecap:round; stroke-linejoin:round; stroke-width:3px;"/><line x1="235.92" y1="138.9" x2="235.92" y2="127.13" style="fill:none; stroke:#fff; stroke-linecap:round; stroke-linejoin:round; stroke-width:3px;"/><line x1="235.92" y1="116.4" x2="235.92" y2="104.63" style="fill:none; stroke:#fff; stroke-linecap:round; stroke-linejoin:round; stroke-width:3px;"/><line x1="274.62" y1="296.4" x2="274.62" y2="103.2" style="fill:none; stroke:#fff; stroke-miterlimit:10; stroke-width:3px;"/><line x1="334.92" y1="296.4" x2="334.92" y2="103.2" style="fill:none; stroke:#fff; stroke-miterlimit:10; stroke-width:3px;"/><circle cx="334.92" cy="215.49" r="2.23" style="fill:#fff; stroke:#fff; stroke-miterlimit:10; stroke-width:.75px;"/><circle cx="334.92" cy="185.46" r="2.23" style="fill:#fff; stroke:#fff; stroke-miterlimit:10; stroke-width:.75px;"/><line x1="334.51" y1="215.49" x2="351.24" y2="217.13" style="fill:none; stroke:#fff; stroke-linecap:round; stroke-linejoin:round; stroke-width:2px;"/><line x1="351.24" y1="183.99" x2="334.51" y2="185.62" style="fill:none; stroke:#fff; stroke-linecap:round; stroke-linejoin:round; stroke-width:2px;"/><line x1="340.09" y1="216.03" x2="340.09" y2="184.81" style="fill:none; stroke:#fff; stroke-miterlimit:10; stroke-width:2px;"/><rect x="45.22" y="103.73" width="19.8" height="193.5" style="fill:#fff; opacity:.3; stroke-width:0px;"/><rect x="335.02" y="103.73" width="19.8" height="193.5" style="fill:#fff; opacity:.3; stroke-width:0px;"/></svg>