<?xml version="1.0" encoding="UTF-8"?><svg id="a" xmlns="http://www.w3.org/2000/svg" viewBox="0 0 400 400"><ellipse cx="200.03" cy="200" rx="145.35" ry="101.33" style="fill:none; stroke:#fff; stroke-miterlimit:10; stroke-width:3px;"/><path d="M107.29,121.97c26.43,20.03,42.79,47.75,42.79,78.37s-16.15,57.98-42.28,77.98" style="fill:none; stroke:#fff; stroke-miterlimit:10; stroke-width:3px;"/><path d="M294.08,278.33c-26.43-20.03-42.79-47.75-42.79-78.37s16.15-57.98,42.28-77.98" style="fill:none; stroke:#fff; stroke-miterlimit:10; stroke-width:3px;"/><path d="M150.08,200.35c0,30.42-16.15,57.98-42.27,77.98-32.44-18.58-53.13-46.77-53.13-78.33s20.47-59.44,52.61-78.02c26.42,20.03,42.79,47.74,42.79,78.37Z" style="fill:#fff; opacity:.3; stroke-width:0px;"/><path d="M345.38,200c0,31.22-20.25,59.14-52.09,77.71-25.96-19.97-42-47.44-42-77.76s16-57.74,41.93-77.72c31.88,18.58,52.16,46.52,52.16,77.76Z" style="fill:#fff; opacity:.3; stroke-width:0px;"/><line x1="107.3" y1="121.98" x2="107.29" y2="121.97" style="fill:none; stroke:#fff; stroke-miterlimit:10; stroke-width:3px;"/><path d="M293.56,121.97c-.12.09-.23.18-.34.27" style="fill:none; stroke:#fff; stroke-miterlimit:10; stroke-width:3px;"/><path d="M294.08,278.33c-.26-.2-.53-.41-.79-.61" style="fill:none; stroke:#fff; stroke-miterlimit:10; stroke-width:3px;"/><rect x="166.73" y="155" width="66.6" height="90" rx="2.1" ry="2.1" style="fill:none; stroke:#fff; stroke-miterlimit:10; stroke-width:2px;"/><circle cx="200.03" cy="200" r="9.9" style="fill:none; stroke:#fff; stroke-miterlimit:10; stroke-width:2px;"/><circle cx="200.03" cy="200" r="9.9" style="fill:#fff; opacity:.2; stroke-width:0px;"/><line x1="56.21" y1="186.5" x2="44.43" y2="186.5" style="fill:none; stroke:#fff; stroke-linecap:round; stroke-linejoin:round; stroke-width:2px;"/><line x1="53.51" y1="194.6" x2="33.08" y2="194.6" style="fill:none; stroke:#fff; stroke-linecap:round; stroke-linejoin:round; stroke-width:2px;"/><line x1="56.21" y1="213.5" x2="44.43" y2="213.5" style="fill:none; stroke:#fff; stroke-linecap:round; stroke-linejoin:round; stroke-width:2px;"/><line x1="53.51" y1="205.4" x2="33.08" y2="205.4" style="fill:none; stroke:#fff; stroke-linecap:round; stroke-linejoin:round; stroke-width:2px;"/><line x1="344.48" y1="213.5" x2="356.26" y2="213.5" style="fill:none; stroke:#fff; stroke-linecap:round; stroke-linejoin:round; stroke-width:2px;"/><line x1="347.18" y1="205.4" x2="367.61" y2="205.4" style="fill:none; stroke:#fff; stroke-linecap:round; stroke-linejoin:round; stroke-width:2px;"/><line x1="344.48" y1="186.5" x2="356.26" y2="186.5" style="fill:none; stroke:#fff; stroke-linecap:round; stroke-linejoin:round; stroke-width:2px;"/><line x1="347.18" y1="194.6" x2="367.61" y2="194.6" style="fill:none; stroke:#fff; stroke-linecap:round; stroke-linejoin:round; stroke-width:2px;"/></svg>