<?xml version="1.0" encoding="UTF-8"?><svg id="a" xmlns="http://www.w3.org/2000/svg" viewBox="0 0 400 400"><rect x="45.65" y="104.13" width="309.6" height="193.2" style="fill:none; stroke:#fff; stroke-miterlimit:10; stroke-width:3px;"/><line x1="200.45" y1="104.13" x2="200.45" y2="297.33" style="fill:none; stroke:#fff; stroke-miterlimit:10; stroke-width:3px;"/><rect x="45.22" y="103.75" width="27.9" height="193.5" style="fill:#fff; opacity:.3; stroke-width:0px;"/><line x1="326.92" y1="296.95" x2="326.92" y2="103.75" style="fill:none; stroke:#fff; stroke-miterlimit:10; stroke-width:2px;"/><rect x="327.35" y="103.83" width="27.9" height="193.5" transform="translate(682.6 401.16) rotate(180)" style="fill:#fff; opacity:.3; stroke-width:0px;"/><line x1="98.3" y1="104.13" x2="98.3" y2="297.33" style="fill:none; stroke:#fff; stroke-miterlimit:10; stroke-width:2px;"/><line x1="73.55" y1="104.13" x2="73.55" y2="297.33" style="fill:none; stroke:#fff; stroke-miterlimit:10; stroke-width:2px;"/><line x1="77.68" y1="103.75" x2="77.68" y2="110.5" style="fill:none; stroke:#fff; stroke-linecap:round; stroke-linejoin:round;"/><line x1="81.8" y1="103.75" x2="81.8" y2="110.5" style="fill:none; stroke:#fff; stroke-linecap:round; stroke-linejoin:round;"/><line x1="85.93" y1="103.75" x2="85.93" y2="110.5" style="fill:none; stroke:#fff; stroke-linecap:round; stroke-linejoin:round;"/><line x1="90.05" y1="103.75" x2="90.05" y2="110.5" style="fill:none; stroke:#fff; stroke-linecap:round; stroke-linejoin:round;"/><line x1="94.18" y1="103.75" x2="94.18" y2="110.5" style="fill:none; stroke:#fff; stroke-linecap:round; stroke-linejoin:round;"/><line x1="123.5" y1="104.13" x2="123.5" y2="297.33" style="fill:none; stroke:#fff; stroke-miterlimit:10; stroke-width:2px;"/><line x1="102.88" y1="103.75" x2="102.88" y2="110.5" style="fill:none; stroke:#fff; stroke-linecap:round; stroke-linejoin:round;"/><line x1="107" y1="103.75" x2="107" y2="110.5" style="fill:none; stroke:#fff; stroke-linecap:round; stroke-linejoin:round;"/><line x1="111.13" y1="103.75" x2="111.13" y2="110.5" style="fill:none; stroke:#fff; stroke-linecap:round; stroke-linejoin:round;"/><line x1="115.25" y1="103.75" x2="115.25" y2="110.5" style="fill:none; stroke:#fff; stroke-linecap:round; stroke-linejoin:round;"/><line x1="119.38" y1="103.75" x2="119.38" y2="110.5" style="fill:none; stroke:#fff; stroke-linecap:round; stroke-linejoin:round;"/><line x1="148.7" y1="104.13" x2="148.7" y2="297.33" style="fill:none; stroke:#fff; stroke-miterlimit:10; stroke-width:2px;"/><line x1="128.08" y1="103.75" x2="128.08" y2="110.5" style="fill:none; stroke:#fff; stroke-linecap:round; stroke-linejoin:round;"/><line x1="132.2" y1="103.75" x2="132.2" y2="110.5" style="fill:none; stroke:#fff; stroke-linecap:round; stroke-linejoin:round;"/><line x1="136.33" y1="103.75" x2="136.33" y2="110.5" style="fill:none; stroke:#fff; stroke-linecap:round; stroke-linejoin:round;"/><line x1="140.45" y1="103.75" x2="140.45" y2="110.5" style="fill:none; stroke:#fff; stroke-linecap:round; stroke-linejoin:round;"/><line x1="144.58" y1="103.75" x2="144.58" y2="110.5" style="fill:none; stroke:#fff; stroke-linecap:round; stroke-linejoin:round;"/><line x1="173.9" y1="104.13" x2="173.9" y2="297.33" style="fill:none; stroke:#fff; stroke-miterlimit:10; stroke-width:2px;"/><line x1="153.28" y1="103.75" x2="153.28" y2="110.5" style="fill:none; stroke:#fff; stroke-linecap:round; stroke-linejoin:round;"/><line x1="157.4" y1="103.75" x2="157.4" y2="110.5" style="fill:none; stroke:#fff; stroke-linecap:round; stroke-linejoin:round;"/><line x1="161.53" y1="103.75" x2="161.53" y2="110.5" style="fill:none; stroke:#fff; stroke-linecap:round; stroke-linejoin:round;"/><line x1="165.65" y1="103.75" x2="165.65" y2="110.5" style="fill:none; stroke:#fff; stroke-linecap:round; stroke-linejoin:round;"/><line x1="169.78" y1="103.75" x2="169.78" y2="110.5" style="fill:none; stroke:#fff; stroke-linecap:round; stroke-linejoin:round;"/><line x1="199.1" y1="104.13" x2="199.1" y2="297.33" style="fill:none; stroke:#fff; stroke-miterlimit:10; stroke-width:2px;"/><line x1="178.48" y1="103.75" x2="178.48" y2="110.5" style="fill:none; stroke:#fff; stroke-linecap:round; stroke-linejoin:round;"/><line x1="182.6" y1="103.75" x2="182.6" y2="110.5" style="fill:none; stroke:#fff; stroke-linecap:round; stroke-linejoin:round;"/><line x1="186.73" y1="103.75" x2="186.73" y2="110.5" style="fill:none; stroke:#fff; stroke-linecap:round; stroke-linejoin:round;"/><line x1="190.85" y1="103.75" x2="190.85" y2="110.5" style="fill:none; stroke:#fff; stroke-linecap:round; stroke-linejoin:round;"/><line x1="194.98" y1="103.75" x2="194.98" y2="110.5" style="fill:none; stroke:#fff; stroke-linecap:round; stroke-linejoin:round;"/><line x1="77.68" y1="290.05" x2="77.68" y2="296.8" style="fill:none; stroke:#fff; stroke-linecap:round; stroke-linejoin:round;"/><line x1="81.8" y1="290.05" x2="81.8" y2="296.8" style="fill:none; stroke:#fff; stroke-linecap:round; stroke-linejoin:round;"/><line x1="85.93" y1="290.05" x2="85.93" y2="296.8" style="fill:none; stroke:#fff; stroke-linecap:round; stroke-linejoin:round;"/><line x1="90.05" y1="290.05" x2="90.05" y2="296.8" style="fill:none; stroke:#fff; stroke-linecap:round; stroke-linejoin:round;"/><line x1="94.18" y1="290.05" x2="94.18" y2="296.8" style="fill:none; stroke:#fff; stroke-linecap:round; stroke-linejoin:round;"/><line x1="102.88" y1="290.05" x2="102.88" y2="296.8" style="fill:none; stroke:#fff; stroke-linecap:round; stroke-linejoin:round;"/><line x1="107" y1="290.05" x2="107" y2="296.8" style="fill:none; stroke:#fff; stroke-linecap:round; stroke-linejoin:round;"/><line x1="111.13" y1="290.05" x2="111.13" y2="296.8" style="fill:none; stroke:#fff; stroke-linecap:round; stroke-linejoin:round;"/><line x1="115.25" y1="290.05" x2="115.25" y2="296.8" style="fill:none; stroke:#fff; stroke-linecap:round; stroke-linejoin:round;"/><line x1="119.38" y1="290.05" x2="119.38" y2="296.8" style="fill:none; stroke:#fff; stroke-linecap:round; stroke-linejoin:round;"/><line x1="128.08" y1="290.05" x2="128.08" y2="296.8" style="fill:none; stroke:#fff; stroke-linecap:round; stroke-linejoin:round;"/><line x1="132.2" y1="290.05" x2="132.2" y2="296.8" style="fill:none; stroke:#fff; stroke-linecap:round; stroke-linejoin:round;"/><line x1="136.33" y1="290.05" x2="136.33" y2="296.8" style="fill:none; stroke:#fff; stroke-linecap:round; stroke-linejoin:round;"/><line x1="140.45" y1="290.05" x2="140.45" y2="296.8" style="fill:none; stroke:#fff; stroke-linecap:round; stroke-linejoin:round;"/><line x1="144.58" y1="290.05" x2="144.58" y2="296.8" style="fill:none; stroke:#fff; stroke-linecap:round; stroke-linejoin:round;"/><line x1="153.28" y1="290.05" x2="153.28" y2="296.8" style="fill:none; stroke:#fff; stroke-linecap:round; stroke-linejoin:round;"/><line x1="157.4" y1="290.05" x2="157.4" y2="296.8" style="fill:none; stroke:#fff; stroke-linecap:round; stroke-linejoin:round;"/><line x1="161.53" y1="290.05" x2="161.53" y2="296.8" style="fill:none; stroke:#fff; stroke-linecap:round; stroke-linejoin:round;"/><line x1="165.65" y1="290.05" x2="165.65" y2="296.8" style="fill:none; stroke:#fff; stroke-linecap:round; stroke-linejoin:round;"/><line x1="169.78" y1="290.05" x2="169.78" y2="296.8" style="fill:none; stroke:#fff; stroke-linecap:round; stroke-linejoin:round;"/><line x1="178.48" y1="290.05" x2="178.48" y2="296.8" style="fill:none; stroke:#fff; stroke-linecap:round; stroke-linejoin:round;"/><line x1="182.6" y1="290.05" x2="182.6" y2="296.8" style="fill:none; stroke:#fff; stroke-linecap:round; stroke-linejoin:round;"/><line x1="186.73" y1="290.05" x2="186.73" y2="296.8" style="fill:none; stroke:#fff; stroke-linecap:round; stroke-linejoin:round;"/><line x1="190.85" y1="290.05" x2="190.85" y2="296.8" style="fill:none; stroke:#fff; stroke-linecap:round; stroke-linejoin:round;"/><line x1="194.98" y1="290.05" x2="194.98" y2="296.8" style="fill:none; stroke:#fff; stroke-linecap:round; stroke-linejoin:round;"/><line x1="77.68" y1="232.45" x2="77.68" y2="239.2" style="fill:none; stroke:#fff; stroke-linecap:round; stroke-linejoin:round;"/><line x1="81.8" y1="232.45" x2="81.8" y2="239.2" style="fill:none; stroke:#fff; stroke-linecap:round; stroke-linejoin:round;"/><line x1="85.93" y1="232.45" x2="85.93" y2="239.2" style="fill:none; stroke:#fff; stroke-linecap:round; stroke-linejoin:round;"/><line x1="90.05" y1="232.45" x2="90.05" y2="239.2" style="fill:none; stroke:#fff; stroke-linecap:round; stroke-linejoin:round;"/><line x1="94.18" y1="232.45" x2="94.18" y2="239.2" style="fill:none; stroke:#fff; stroke-linecap:round; stroke-linejoin:round;"/><line x1="102.88" y1="232.45" x2="102.88" y2="239.2" style="fill:none; stroke:#fff; stroke-linecap:round; stroke-linejoin:round;"/><line x1="107" y1="232.45" x2="107" y2="239.2" style="fill:none; stroke:#fff; stroke-linecap:round; stroke-linejoin:round;"/><line x1="111.13" y1="232.45" x2="111.13" y2="239.2" style="fill:none; stroke:#fff; stroke-linecap:round; stroke-linejoin:round;"/><line x1="115.25" y1="232.45" x2="115.25" y2="239.2" style="fill:none; stroke:#fff; stroke-linecap:round; stroke-linejoin:round;"/><line x1="119.38" y1="232.45" x2="119.38" y2="239.2" style="fill:none; stroke:#fff; stroke-linecap:round; stroke-linejoin:round;"/><line x1="128.08" y1="232.45" x2="128.08" y2="239.2" style="fill:none; stroke:#fff; stroke-linecap:round; stroke-linejoin:round;"/><line x1="132.2" y1="232.45" x2="132.2" y2="239.2" style="fill:none; stroke:#fff; stroke-linecap:round; stroke-linejoin:round;"/><line x1="136.33" y1="232.45" x2="136.33" y2="239.2" style="fill:none; stroke:#fff; stroke-linecap:round; stroke-linejoin:round;"/><line x1="140.45" y1="232.45" x2="140.45" y2="239.2" style="fill:none; stroke:#fff; stroke-linecap:round; stroke-linejoin:round;"/><line x1="144.58" y1="232.45" x2="144.58" y2="239.2" style="fill:none; stroke:#fff; stroke-linecap:round; stroke-linejoin:round;"/><line x1="153.28" y1="232.45" x2="153.28" y2="239.2" style="fill:none; stroke:#fff; stroke-linecap:round; stroke-linejoin:round;"/><line x1="157.4" y1="232.45" x2="157.4" y2="239.2" style="fill:none; stroke:#fff; stroke-linecap:round; stroke-linejoin:round;"/><line x1="161.53" y1="232.45" x2="161.53" y2="239.2" style="fill:none; stroke:#fff; stroke-linecap:round; stroke-linejoin:round;"/><line x1="165.65" y1="232.45" x2="165.65" y2="239.2" style="fill:none; stroke:#fff; stroke-linecap:round; stroke-linejoin:round;"/><line x1="169.78" y1="232.45" x2="169.78" y2="239.2" style="fill:none; stroke:#fff; stroke-linecap:round; stroke-linejoin:round;"/><line x1="178.48" y1="232.45" x2="178.48" y2="239.2" style="fill:none; stroke:#fff; stroke-linecap:round; stroke-linejoin:round;"/><line x1="182.6" y1="232.45" x2="182.6" y2="239.2" style="fill:none; stroke:#fff; stroke-linecap:round; stroke-linejoin:round;"/><line x1="186.73" y1="232.45" x2="186.73" y2="239.2" style="fill:none; stroke:#fff; stroke-linecap:round; stroke-linejoin:round;"/><line x1="190.85" y1="232.45" x2="190.85" y2="239.2" style="fill:none; stroke:#fff; stroke-linecap:round; stroke-linejoin:round;"/><line x1="194.98" y1="232.45" x2="194.98" y2="239.2" style="fill:none; stroke:#fff; stroke-linecap:round; stroke-linejoin:round;"/><line x1="77.68" y1="161.35" x2="77.68" y2="168.1" style="fill:none; stroke:#fff; stroke-linecap:round; stroke-linejoin:round;"/><line x1="81.8" y1="161.35" x2="81.8" y2="168.1" style="fill:none; stroke:#fff; stroke-linecap:round; stroke-linejoin:round;"/><line x1="85.93" y1="161.35" x2="85.93" y2="168.1" style="fill:none; stroke:#fff; stroke-linecap:round; stroke-linejoin:round;"/><line x1="90.05" y1="161.35" x2="90.05" y2="168.1" style="fill:none; stroke:#fff; stroke-linecap:round; stroke-linejoin:round;"/><line x1="94.18" y1="161.35" x2="94.18" y2="168.1" style="fill:none; stroke:#fff; stroke-linecap:round; stroke-linejoin:round;"/><line x1="102.88" y1="161.35" x2="102.88" y2="168.1" style="fill:none; stroke:#fff; stroke-linecap:round; stroke-linejoin:round;"/><line x1="107" y1="161.35" x2="107" y2="168.1" style="fill:none; stroke:#fff; stroke-linecap:round; stroke-linejoin:round;"/><line x1="111.13" y1="161.35" x2="111.13" y2="168.1" style="fill:none; stroke:#fff; stroke-linecap:round; stroke-linejoin:round;"/><line x1="115.25" y1="161.35" x2="115.25" y2="168.1" style="fill:none; stroke:#fff; stroke-linecap:round; stroke-linejoin:round;"/><line x1="119.38" y1="161.35" x2="119.38" y2="168.1" style="fill:none; stroke:#fff; stroke-linecap:round; stroke-linejoin:round;"/><line x1="128.08" y1="161.35" x2="128.08" y2="168.1" style="fill:none; stroke:#fff; stroke-linecap:round; stroke-linejoin:round;"/><line x1="132.2" y1="161.35" x2="132.2" y2="168.1" style="fill:none; stroke:#fff; stroke-linecap:round; stroke-linejoin:round;"/><line x1="136.33" y1="161.35" x2="136.33" y2="168.1" style="fill:none; stroke:#fff; stroke-linecap:round; stroke-linejoin:round;"/><line x1="140.45" y1="161.35" x2="140.45" y2="168.1" style="fill:none; stroke:#fff; stroke-linecap:round; stroke-linejoin:round;"/><line x1="144.58" y1="161.35" x2="144.58" y2="168.1" style="fill:none; stroke:#fff; stroke-linecap:round; stroke-linejoin:round;"/><line x1="153.28" y1="161.35" x2="153.28" y2="168.1" style="fill:none; stroke:#fff; stroke-linecap:round; stroke-linejoin:round;"/><line x1="157.4" y1="161.35" x2="157.4" y2="168.1" style="fill:none; stroke:#fff; stroke-linecap:round; stroke-linejoin:round;"/><line x1="161.53" y1="161.35" x2="161.53" y2="168.1" style="fill:none; stroke:#fff; stroke-linecap:round; stroke-linejoin:round;"/><line x1="165.65" y1="161.35" x2="165.65" y2="168.1" style="fill:none; stroke:#fff; stroke-linecap:round; stroke-linejoin:round;"/><line x1="169.78" y1="161.35" x2="169.78" y2="168.1" style="fill:none; stroke:#fff; stroke-linecap:round; stroke-linejoin:round;"/><line x1="178.48" y1="161.35" x2="178.48" y2="168.1" style="fill:none; stroke:#fff; stroke-linecap:round; stroke-linejoin:round;"/><line x1="182.6" y1="161.35" x2="182.6" y2="168.1" style="fill:none; stroke:#fff; stroke-linecap:round; stroke-linejoin:round;"/><line x1="186.73" y1="161.35" x2="186.73" y2="168.1" style="fill:none; stroke:#fff; stroke-linecap:round; stroke-linejoin:round;"/><line x1="190.85" y1="161.35" x2="190.85" y2="168.1" style="fill:none; stroke:#fff; stroke-linecap:round; stroke-linejoin:round;"/><line x1="194.98" y1="161.35" x2="194.98" y2="168.1" style="fill:none; stroke:#fff; stroke-linecap:round; stroke-linejoin:round;"/><line x1="302.15" y1="296.95" x2="302.15" y2="103.75" style="fill:none; stroke:#fff; stroke-miterlimit:10; stroke-width:2px;"/><line x1="326.9" y1="296.95" x2="326.9" y2="103.75" style="fill:none; stroke:#fff; stroke-miterlimit:10; stroke-width:2px;"/><line x1="322.78" y1="297.33" x2="322.78" y2="290.58" style="fill:none; stroke:#fff; stroke-linecap:round; stroke-linejoin:round;"/><line x1="318.65" y1="297.33" x2="318.65" y2="290.58" style="fill:none; stroke:#fff; stroke-linecap:round; stroke-linejoin:round;"/><line x1="314.53" y1="297.33" x2="314.53" y2="290.58" style="fill:none; stroke:#fff; stroke-linecap:round; stroke-linejoin:round;"/><line x1="310.4" y1="297.33" x2="310.4" y2="290.58" style="fill:none; stroke:#fff; stroke-linecap:round; stroke-linejoin:round;"/><line x1="306.28" y1="297.33" x2="306.28" y2="290.58" style="fill:none; stroke:#fff; stroke-linecap:round; stroke-linejoin:round;"/><line x1="276.95" y1="296.95" x2="276.95" y2="103.75" style="fill:none; stroke:#fff; stroke-miterlimit:10; stroke-width:2px;"/><line x1="297.58" y1="297.33" x2="297.58" y2="290.58" style="fill:none; stroke:#fff; stroke-linecap:round; stroke-linejoin:round;"/><line x1="293.45" y1="297.33" x2="293.45" y2="290.58" style="fill:none; stroke:#fff; stroke-linecap:round; stroke-linejoin:round;"/><line x1="289.33" y1="297.33" x2="289.33" y2="290.58" style="fill:none; stroke:#fff; stroke-linecap:round; stroke-linejoin:round;"/><line x1="285.2" y1="297.33" x2="285.2" y2="290.58" style="fill:none; stroke:#fff; stroke-linecap:round; stroke-linejoin:round;"/><line x1="281.08" y1="297.33" x2="281.08" y2="290.58" style="fill:none; stroke:#fff; stroke-linecap:round; stroke-linejoin:round;"/><line x1="251.75" y1="296.95" x2="251.75" y2="103.75" style="fill:none; stroke:#fff; stroke-miterlimit:10; stroke-width:2px;"/><line x1="272.38" y1="297.33" x2="272.38" y2="290.58" style="fill:none; stroke:#fff; stroke-linecap:round; stroke-linejoin:round;"/><line x1="268.25" y1="297.33" x2="268.25" y2="290.58" style="fill:none; stroke:#fff; stroke-linecap:round; stroke-linejoin:round;"/><line x1="264.13" y1="297.33" x2="264.13" y2="290.58" style="fill:none; stroke:#fff; stroke-linecap:round; stroke-linejoin:round;"/><line x1="260" y1="297.33" x2="260" y2="290.58" style="fill:none; stroke:#fff; stroke-linecap:round; stroke-linejoin:round;"/><line x1="255.88" y1="297.33" x2="255.88" y2="290.58" style="fill:none; stroke:#fff; stroke-linecap:round; stroke-linejoin:round;"/><line x1="226.55" y1="296.95" x2="226.55" y2="103.75" style="fill:none; stroke:#fff; stroke-miterlimit:10; stroke-width:2px;"/><line x1="247.18" y1="297.33" x2="247.18" y2="290.58" style="fill:none; stroke:#fff; stroke-linecap:round; stroke-linejoin:round;"/><line x1="243.05" y1="297.33" x2="243.05" y2="290.58" style="fill:none; stroke:#fff; stroke-linecap:round; stroke-linejoin:round;"/><line x1="238.93" y1="297.33" x2="238.93" y2="290.58" style="fill:none; stroke:#fff; stroke-linecap:round; stroke-linejoin:round;"/><line x1="234.8" y1="297.33" x2="234.8" y2="290.58" style="fill:none; stroke:#fff; stroke-linecap:round; stroke-linejoin:round;"/><line x1="230.68" y1="297.33" x2="230.68" y2="290.58" style="fill:none; stroke:#fff; stroke-linecap:round; stroke-linejoin:round;"/><line x1="201.35" y1="296.95" x2="201.35" y2="103.75" style="fill:none; stroke:#fff; stroke-miterlimit:10; stroke-width:2px;"/><line x1="221.98" y1="297.33" x2="221.98" y2="290.58" style="fill:none; stroke:#fff; stroke-linecap:round; stroke-linejoin:round;"/><line x1="217.85" y1="297.33" x2="217.85" y2="290.58" style="fill:none; stroke:#fff; stroke-linecap:round; stroke-linejoin:round;"/><line x1="213.73" y1="297.33" x2="213.73" y2="290.58" style="fill:none; stroke:#fff; stroke-linecap:round; stroke-linejoin:round;"/><line x1="209.6" y1="297.33" x2="209.6" y2="290.58" style="fill:none; stroke:#fff; stroke-linecap:round; stroke-linejoin:round;"/><line x1="205.48" y1="297.33" x2="205.48" y2="290.58" style="fill:none; stroke:#fff; stroke-linecap:round; stroke-linejoin:round;"/><line x1="322.78" y1="111.03" x2="322.78" y2="104.28" style="fill:none; stroke:#fff; stroke-linecap:round; stroke-linejoin:round;"/><line x1="318.65" y1="111.03" x2="318.65" y2="104.28" style="fill:none; stroke:#fff; stroke-linecap:round; stroke-linejoin:round;"/><line x1="314.53" y1="111.03" x2="314.53" y2="104.28" style="fill:none; stroke:#fff; stroke-linecap:round; stroke-linejoin:round;"/><line x1="310.4" y1="111.03" x2="310.4" y2="104.28" style="fill:none; stroke:#fff; stroke-linecap:round; stroke-linejoin:round;"/><line x1="306.28" y1="111.03" x2="306.28" y2="104.28" style="fill:none; stroke:#fff; stroke-linecap:round; stroke-linejoin:round;"/><line x1="297.58" y1="111.03" x2="297.58" y2="104.28" style="fill:none; stroke:#fff; stroke-linecap:round; stroke-linejoin:round;"/><line x1="293.45" y1="111.03" x2="293.45" y2="104.28" style="fill:none; stroke:#fff; stroke-linecap:round; stroke-linejoin:round;"/><line x1="289.33" y1="111.03" x2="289.33" y2="104.28" style="fill:none; stroke:#fff; stroke-linecap:round; stroke-linejoin:round;"/><line x1="285.2" y1="111.03" x2="285.2" y2="104.28" style="fill:none; stroke:#fff; stroke-linecap:round; stroke-linejoin:round;"/><line x1="281.08" y1="111.03" x2="281.08" y2="104.28" style="fill:none; stroke:#fff; stroke-linecap:round; stroke-linejoin:round;"/><line x1="272.38" y1="111.03" x2="272.38" y2="104.28" style="fill:none; stroke:#fff; stroke-linecap:round; stroke-linejoin:round;"/><line x1="268.25" y1="111.03" x2="268.25" y2="104.28" style="fill:none; stroke:#fff; stroke-linecap:round; stroke-linejoin:round;"/><line x1="264.13" y1="111.03" x2="264.13" y2="104.28" style="fill:none; stroke:#fff; stroke-linecap:round; stroke-linejoin:round;"/><line x1="260" y1="111.03" x2="260" y2="104.28" style="fill:none; stroke:#fff; stroke-linecap:round; stroke-linejoin:round;"/><line x1="255.88" y1="111.03" x2="255.88" y2="104.28" style="fill:none; stroke:#fff; stroke-linecap:round; stroke-linejoin:round;"/><line x1="247.18" y1="111.03" x2="247.18" y2="104.28" style="fill:none; stroke:#fff; stroke-linecap:round; stroke-linejoin:round;"/><line x1="243.05" y1="111.03" x2="243.05" y2="104.28" style="fill:none; stroke:#fff; stroke-linecap:round; stroke-linejoin:round;"/><line x1="238.93" y1="111.03" x2="238.93" y2="104.28" style="fill:none; stroke:#fff; stroke-linecap:round; stroke-linejoin:round;"/><line x1="234.8" y1="111.03" x2="234.8" y2="104.28" style="fill:none; stroke:#fff; stroke-linecap:round; stroke-linejoin:round;"/><line x1="230.68" y1="111.03" x2="230.68" y2="104.28" style="fill:none; stroke:#fff; stroke-linecap:round; stroke-linejoin:round;"/><line x1="221.98" y1="111.03" x2="221.98" y2="104.28" style="fill:none; stroke:#fff; stroke-linecap:round; stroke-linejoin:round;"/><line x1="217.85" y1="111.03" x2="217.85" y2="104.28" style="fill:none; stroke:#fff; stroke-linecap:round; stroke-linejoin:round;"/><line x1="213.73" y1="111.03" x2="213.73" y2="104.28" style="fill:none; stroke:#fff; stroke-linecap:round; stroke-linejoin:round;"/><line x1="209.6" y1="111.03" x2="209.6" y2="104.28" style="fill:none; stroke:#fff; stroke-linecap:round; stroke-linejoin:round;"/><line x1="205.48" y1="111.03" x2="205.48" y2="104.28" style="fill:none; stroke:#fff; stroke-linecap:round; stroke-linejoin:round;"/><line x1="322.78" y1="168.63" x2="322.78" y2="161.88" style="fill:none; stroke:#fff; stroke-linecap:round; stroke-linejoin:round;"/><line x1="318.65" y1="168.63" x2="318.65" y2="161.88" style="fill:none; stroke:#fff; stroke-linecap:round; stroke-linejoin:round;"/><line x1="314.53" y1="168.63" x2="314.53" y2="161.88" style="fill:none; stroke:#fff; stroke-linecap:round; stroke-linejoin:round;"/><line x1="310.4" y1="168.63" x2="310.4" y2="161.88" style="fill:none; stroke:#fff; stroke-linecap:round; stroke-linejoin:round;"/><line x1="306.28" y1="168.63" x2="306.28" y2="161.88" style="fill:none; stroke:#fff; stroke-linecap:round; stroke-linejoin:round;"/><line x1="297.58" y1="168.63" x2="297.58" y2="161.88" style="fill:none; stroke:#fff; stroke-linecap:round; stroke-linejoin:round;"/><line x1="293.45" y1="168.63" x2="293.45" y2="161.88" style="fill:none; stroke:#fff; stroke-linecap:round; stroke-linejoin:round;"/><line x1="289.33" y1="168.63" x2="289.33" y2="161.88" style="fill:none; stroke:#fff; stroke-linecap:round; stroke-linejoin:round;"/><line x1="285.2" y1="168.63" x2="285.2" y2="161.88" style="fill:none; stroke:#fff; stroke-linecap:round; stroke-linejoin:round;"/><line x1="281.08" y1="168.63" x2="281.08" y2="161.88" style="fill:none; stroke:#fff; stroke-linecap:round; stroke-linejoin:round;"/><line x1="272.38" y1="168.63" x2="272.38" y2="161.88" style="fill:none; stroke:#fff; stroke-linecap:round; stroke-linejoin:round;"/><line x1="268.25" y1="168.63" x2="268.25" y2="161.88" style="fill:none; stroke:#fff; stroke-linecap:round; stroke-linejoin:round;"/><line x1="264.13" y1="168.63" x2="264.13" y2="161.88" style="fill:none; stroke:#fff; stroke-linecap:round; stroke-linejoin:round;"/><line x1="260" y1="168.63" x2="260" y2="161.88" style="fill:none; stroke:#fff; stroke-linecap:round; stroke-linejoin:round;"/><line x1="255.88" y1="168.63" x2="255.88" y2="161.88" style="fill:none; stroke:#fff; stroke-linecap:round; stroke-linejoin:round;"/><line x1="247.18" y1="168.63" x2="247.18" y2="161.88" style="fill:none; stroke:#fff; stroke-linecap:round; stroke-linejoin:round;"/><line x1="243.05" y1="168.63" x2="243.05" y2="161.88" style="fill:none; stroke:#fff; stroke-linecap:round; stroke-linejoin:round;"/><line x1="238.93" y1="168.63" x2="238.93" y2="161.88" style="fill:none; stroke:#fff; stroke-linecap:round; stroke-linejoin:round;"/><line x1="234.8" y1="168.63" x2="234.8" y2="161.88" style="fill:none; stroke:#fff; stroke-linecap:round; stroke-linejoin:round;"/><line x1="230.68" y1="168.63" x2="230.68" y2="161.88" style="fill:none; stroke:#fff; stroke-linecap:round; stroke-linejoin:round;"/><line x1="221.98" y1="168.63" x2="221.98" y2="161.88" style="fill:none; stroke:#fff; stroke-linecap:round; stroke-linejoin:round;"/><line x1="217.85" y1="168.63" x2="217.85" y2="161.88" style="fill:none; stroke:#fff; stroke-linecap:round; stroke-linejoin:round;"/><line x1="213.73" y1="168.63" x2="213.73" y2="161.88" style="fill:none; stroke:#fff; stroke-linecap:round; stroke-linejoin:round;"/><line x1="209.6" y1="168.63" x2="209.6" y2="161.88" style="fill:none; stroke:#fff; stroke-linecap:round; stroke-linejoin:round;"/><line x1="205.48" y1="168.63" x2="205.48" y2="161.88" style="fill:none; stroke:#fff; stroke-linecap:round; stroke-linejoin:round;"/><line x1="322.78" y1="239.73" x2="322.78" y2="232.98" style="fill:none; stroke:#fff; stroke-linecap:round; stroke-linejoin:round;"/><line x1="318.65" y1="239.73" x2="318.65" y2="232.98" style="fill:none; stroke:#fff; stroke-linecap:round; stroke-linejoin:round;"/><line x1="314.53" y1="239.73" x2="314.53" y2="232.98" style="fill:none; stroke:#fff; stroke-linecap:round; stroke-linejoin:round;"/><line x1="310.4" y1="239.73" x2="310.4" y2="232.98" style="fill:none; stroke:#fff; stroke-linecap:round; stroke-linejoin:round;"/><line x1="306.28" y1="239.73" x2="306.28" y2="232.98" style="fill:none; stroke:#fff; stroke-linecap:round; stroke-linejoin:round;"/><line x1="297.58" y1="239.73" x2="297.58" y2="232.98" style="fill:none; stroke:#fff; stroke-linecap:round; stroke-linejoin:round;"/><line x1="293.45" y1="239.73" x2="293.45" y2="232.98" style="fill:none; stroke:#fff; stroke-linecap:round; stroke-linejoin:round;"/><line x1="289.33" y1="239.73" x2="289.33" y2="232.98" style="fill:none; stroke:#fff; stroke-linecap:round; stroke-linejoin:round;"/><line x1="285.2" y1="239.73" x2="285.2" y2="232.98" style="fill:none; stroke:#fff; stroke-linecap:round; stroke-linejoin:round;"/><line x1="281.08" y1="239.73" x2="281.08" y2="232.98" style="fill:none; stroke:#fff; stroke-linecap:round; stroke-linejoin:round;"/><line x1="272.38" y1="239.73" x2="272.38" y2="232.98" style="fill:none; stroke:#fff; stroke-linecap:round; stroke-linejoin:round;"/><line x1="268.25" y1="239.73" x2="268.25" y2="232.98" style="fill:none; stroke:#fff; stroke-linecap:round; stroke-linejoin:round;"/><line x1="264.13" y1="239.73" x2="264.13" y2="232.98" style="fill:none; stroke:#fff; stroke-linecap:round; stroke-linejoin:round;"/><line x1="260" y1="239.73" x2="260" y2="232.98" style="fill:none; stroke:#fff; stroke-linecap:round; stroke-linejoin:round;"/><line x1="255.88" y1="239.73" x2="255.88" y2="232.98" style="fill:none; stroke:#fff; stroke-linecap:round; stroke-linejoin:round;"/><line x1="247.18" y1="239.73" x2="247.18" y2="232.98" style="fill:none; stroke:#fff; stroke-linecap:round; stroke-linejoin:round;"/><line x1="243.05" y1="239.73" x2="243.05" y2="232.98" style="fill:none; stroke:#fff; stroke-linecap:round; stroke-linejoin:round;"/><line x1="238.93" y1="239.73" x2="238.93" y2="232.98" style="fill:none; stroke:#fff; stroke-linecap:round; stroke-linejoin:round;"/><line x1="234.8" y1="239.73" x2="234.8" y2="232.98" style="fill:none; stroke:#fff; stroke-linecap:round; stroke-linejoin:round;"/><line x1="230.68" y1="239.73" x2="230.68" y2="232.98" style="fill:none; stroke:#fff; stroke-linecap:round; stroke-linejoin:round;"/><line x1="221.98" y1="239.73" x2="221.98" y2="232.98" style="fill:none; stroke:#fff; stroke-linecap:round; stroke-linejoin:round;"/><line x1="217.85" y1="239.73" x2="217.85" y2="232.98" style="fill:none; stroke:#fff; stroke-linecap:round; stroke-linejoin:round;"/><line x1="213.73" y1="239.73" x2="213.73" y2="232.98" style="fill:none; stroke:#fff; stroke-linecap:round; stroke-linejoin:round;"/><line x1="209.6" y1="239.73" x2="209.6" y2="232.98" style="fill:none; stroke:#fff; stroke-linecap:round; stroke-linejoin:round;"/><line x1="205.48" y1="239.73" x2="205.48" y2="232.98" style="fill:none; stroke:#fff; stroke-linecap:round; stroke-linejoin:round;"/><text transform="translate(93.06 286.73)" style="fill:#fff; font-family:BebasNeue, &apos;Bebas Neue&apos;; font-size:9.9px;"><tspan x="0" y="0" xml:space="preserve">1  0</tspan></text><text transform="translate(118.26 286.73)" style="fill:#fff; font-family:BebasNeue, &apos;Bebas Neue&apos;; font-size:9.9px;"><tspan x="0" y="0" xml:space="preserve">2  0</tspan></text><text transform="translate(143.46 286.73)" style="fill:#fff; font-family:BebasNeue, &apos;Bebas Neue&apos;; font-size:9.9px;"><tspan x="0" y="0" xml:space="preserve">3  0</tspan></text><text transform="translate(168.67 286.73)" style="fill:#fff; font-family:BebasNeue, &apos;Bebas Neue&apos;; font-size:9.9px;"><tspan x="0" y="0" xml:space="preserve">4  0</tspan></text><text transform="translate(193.23 286.73)" style="fill:#fff; font-family:BebasNeue, &apos;Bebas Neue&apos;; font-size:9.9px;"><tspan x="0" y="0" xml:space="preserve">5    0</tspan></text><text transform="translate(220.86 286.73)" style="fill:#fff; font-family:BebasNeue, &apos;Bebas Neue&apos;; font-size:9.9px;"><tspan x="0" y="0" xml:space="preserve">4  0</tspan></text><text transform="translate(246.06 286.73)" style="fill:#fff; font-family:BebasNeue, &apos;Bebas Neue&apos;; font-size:9.9px;"><tspan x="0" y="0" xml:space="preserve">3  0</tspan></text><text transform="translate(271.26 286.73)" style="fill:#fff; font-family:BebasNeue, &apos;Bebas Neue&apos;; font-size:9.9px;"><tspan x="0" y="0" xml:space="preserve">2  0</tspan></text><text transform="translate(296.46 286.73)" style="fill:#fff; font-family:BebasNeue, &apos;Bebas Neue&apos;; font-size:9.9px;"><tspan x="0" y="0" xml:space="preserve">1  0</tspan></text><text transform="translate(307.37 114.49) rotate(-180)" style="fill:#fff; font-family:BebasNeue, &apos;Bebas Neue&apos;; font-size:9.9px;"><tspan x="0" y="0" xml:space="preserve">1  0</tspan></text><text transform="translate(282.17 114.49) rotate(-180)" style="fill:#fff; font-family:BebasNeue, &apos;Bebas Neue&apos;; font-size:9.9px;"><tspan x="0" y="0" xml:space="preserve">2  0</tspan></text><text transform="translate(256.97 114.49) rotate(-180)" style="fill:#fff; font-family:BebasNeue, &apos;Bebas Neue&apos;; font-size:9.9px;"><tspan x="0" y="0" xml:space="preserve">3  0</tspan></text><text transform="translate(231.77 114.49) rotate(-180)" style="fill:#fff; font-family:BebasNeue, &apos;Bebas Neue&apos;; font-size:9.9px;"><tspan x="0" y="0" xml:space="preserve">4  0</tspan></text><text transform="translate(207.21 114.49) rotate(-180)" style="fill:#fff; font-family:BebasNeue, &apos;Bebas Neue&apos;; font-size:9.9px;"><tspan x="0" y="0" xml:space="preserve">5    0</tspan></text><text transform="translate(179.57 114.49) rotate(-180)" style="fill:#fff; font-family:BebasNeue, &apos;Bebas Neue&apos;; font-size:9.9px;"><tspan x="0" y="0" xml:space="preserve">4  0</tspan></text><text transform="translate(154.37 114.49) rotate(-180)" style="fill:#fff; font-family:BebasNeue, &apos;Bebas Neue&apos;; font-size:9.9px;"><tspan x="0" y="0" xml:space="preserve">3  0</tspan></text><text transform="translate(129.17 114.49) rotate(-180)" style="fill:#fff; font-family:BebasNeue, &apos;Bebas Neue&apos;; font-size:9.9px;"><tspan x="0" y="0" xml:space="preserve">2  0</tspan></text><text transform="translate(103.97 114.49) rotate(-180)" style="fill:#fff; font-family:BebasNeue, &apos;Bebas Neue&apos;; font-size:9.9px;"><tspan x="0" y="0" xml:space="preserve">1  0</tspan></text><line x1="73.39" y1="200.84" x2="67.11" y2="200.84" style="fill:none; stroke:#fff; stroke-miterlimit:10; stroke-width:2px;"/><path d="M54.22,193.75h8.95c2.01,0,3.65,2.15,3.65,4.78v4.62c0,2.63-1.64,4.78-3.65,4.78h-8.95" style="fill:none; stroke:#fff; stroke-linecap:round; stroke-linejoin:round; stroke-width:2px;"/><line x1="73.39" y1="200.84" x2="67.11" y2="200.84" style="fill:none; stroke:#fff; stroke-miterlimit:10; stroke-width:2px;"/><path d="M54.22,193.75h8.95c2.01,0,3.65,2.15,3.65,4.78v4.62c0,2.63-1.64,4.78-3.65,4.78h-8.95" style="fill:none; stroke:#fff; stroke-linecap:round; stroke-linejoin:round; stroke-width:2px;"/><line x1="73.39" y1="200.84" x2="67.11" y2="200.84" style="fill:none; stroke:#fff; stroke-miterlimit:10; stroke-width:2px;"/><path d="M54.22,193.75h8.95c2.01,0,3.65,2.15,3.65,4.78v4.62c0,2.63-1.64,4.78-3.65,4.78h-8.95" style="fill:none; stroke:#fff; stroke-linecap:round; stroke-linejoin:round; stroke-width:2px;"/><line x1="326.92" y1="200.84" x2="333.2" y2="200.84" style="fill:none; stroke:#fff; stroke-miterlimit:10; stroke-width:2px;"/><path d="M346.09,207.93h-8.95c-2.01,0-3.65-2.15-3.65-4.78v-4.62c0-2.63,1.64-4.78,3.65-4.78h8.95" style="fill:none; stroke:#fff; stroke-linecap:round; stroke-linejoin:round; stroke-width:2px;"/></svg>